<svg width="159" height="87" viewBox="0 0 159 87" fill="none" xmlns="http://www.w3.org/2000/svg">
<path d="M84.1854 29.0833C81.2161 20.6531 75.7037 13.352 68.4089 8.18755C61.114 3.02307 52.3963 0.24967 43.4583 0.25C19.5988 0.25 0.208344 19.6404 0.208344 43.5C0.208344 67.3596 19.5988 86.75 43.4583 86.75C52.3963 86.7503 61.114 83.9769 68.4089 78.8124C75.7037 73.648 81.2161 66.3469 84.1854 57.9167H115.542V86.75H144.375V57.9167H158.792V29.0833H84.1854ZM43.4583 57.9167C35.5292 57.9167 29.0417 51.4292 29.0417 43.5C29.0417 35.5708 35.5292 29.0833 43.4583 29.0833C51.3875 29.0833 57.875 35.5708 57.875 43.5C57.875 51.4292 51.3875 57.9167 43.4583 57.9167Z" fill="#111313"/>
<rect x="23" y="26" width="40" height="33" fill="#111313"/>
<path d="M20.878 28.7273V52H18.1962V28.7273H20.878ZM31.5663 52.4091C30.4602 52.4091 29.4564 52.2008 28.5549 51.7841C27.6534 51.3598 26.9375 50.75 26.4072 49.9545C25.8769 49.1515 25.6118 48.1818 25.6118 47.0455C25.6118 46.0455 25.8087 45.2348 26.2027 44.6136C26.5966 43.9848 27.1231 43.4924 27.7822 43.1364C28.4413 42.7803 29.1686 42.5152 29.964 42.3409C30.7671 42.1591 31.5739 42.0152 32.3845 41.9091C33.4451 41.7727 34.3049 41.6705 34.964 41.6023C35.6307 41.5265 36.1155 41.4015 36.4186 41.2273C36.7292 41.053 36.8845 40.75 36.8845 40.3182V40.2273C36.8845 39.1061 36.5777 38.2348 35.964 37.6136C35.358 36.9924 34.4375 36.6818 33.2027 36.6818C31.9224 36.6818 30.9186 36.9621 30.1913 37.5227C29.464 38.0833 28.9527 38.6818 28.6572 39.3182L26.1118 38.4091C26.5663 37.3485 27.1724 36.5227 27.9299 35.9318C28.6951 35.3333 29.5284 34.9167 30.4299 34.6818C31.339 34.4394 32.233 34.3182 33.1118 34.3182C33.6724 34.3182 34.3163 34.3864 35.0436 34.5227C35.7784 34.6515 36.4868 34.9205 37.1686 35.3295C37.858 35.7386 38.4299 36.3561 38.8845 37.1818C39.339 38.0076 39.5663 39.1136 39.5663 40.5V52H36.8845V49.6364H36.7481C36.5663 50.0152 36.2633 50.4205 35.839 50.8523C35.4148 51.2841 34.8504 51.6515 34.1458 51.9545C33.4413 52.2576 32.5814 52.4091 31.5663 52.4091ZM31.9754 50C33.036 50 33.9299 49.7917 34.6572 49.375C35.3921 48.9583 35.9451 48.4205 36.3163 47.7614C36.6951 47.1023 36.8845 46.4091 36.8845 45.6818V43.2273C36.7708 43.3636 36.5208 43.4886 36.1345 43.6023C35.7557 43.7083 35.3163 43.803 34.8163 43.8864C34.3239 43.9621 33.8428 44.0303 33.3731 44.0909C32.911 44.1439 32.536 44.1894 32.2481 44.2273C31.5511 44.3182 30.8996 44.4659 30.2936 44.6705C29.6951 44.8674 29.2102 45.1667 28.839 45.5682C28.4754 45.9621 28.2936 46.5 28.2936 47.1818C28.2936 48.1136 28.6383 48.8182 29.3277 49.2955C30.0246 49.7652 30.9072 50 31.9754 50ZM45.4648 52V28.7273H48.1466V37.3182H48.3739C48.5709 37.0152 48.8436 36.6288 49.1921 36.1591C49.5482 35.6818 50.0557 35.2576 50.7148 34.8864C51.3815 34.5076 52.283 34.3182 53.4194 34.3182C54.8891 34.3182 56.1845 34.6856 57.3057 35.4205C58.4269 36.1553 59.3019 37.197 59.9307 38.5455C60.5595 39.8939 60.8739 41.4848 60.8739 43.3182C60.8739 45.1667 60.5595 46.7689 59.9307 48.125C59.3019 49.4735 58.4307 50.5189 57.3171 51.2614C56.2035 51.9962 54.9194 52.3636 53.4648 52.3636C52.3436 52.3636 51.4459 52.178 50.7716 51.8068C50.0974 51.428 49.5785 51 49.2148 50.5227C48.8512 50.0379 48.5709 49.6364 48.3739 49.3182H48.0557V52H45.4648ZM48.1012 43.2727C48.1012 44.5909 48.2944 45.7538 48.6807 46.7614C49.0671 47.7614 49.6315 48.5455 50.3739 49.1136C51.1163 49.6742 52.0254 49.9545 53.1012 49.9545C54.2224 49.9545 55.158 49.6591 55.908 49.0682C56.6656 48.4697 57.2338 47.6667 57.6125 46.6591C57.9989 45.6439 58.1921 44.5152 58.1921 43.2727C58.1921 42.0455 58.0027 40.9394 57.6239 39.9545C57.2527 38.9621 56.6883 38.178 55.9307 37.6023C55.1807 37.0189 54.2375 36.7273 53.1012 36.7273C52.0103 36.7273 51.0936 37.0038 50.3512 37.5568C49.6088 38.1023 49.0482 38.8674 48.6694 39.8523C48.2906 40.8295 48.1012 41.9697 48.1012 43.2727Z" fill="#F8FAFC"/>
<path d="M64.7525 58.5455V34.5455H70.9798V37.5909H71.1162C71.3435 37 71.6768 36.4583 72.1162 35.9659C72.5556 35.4659 73.101 35.0682 73.7525 34.7727C74.4041 34.4697 75.1616 34.3182 76.0253 34.3182C77.1768 34.3182 78.2715 34.625 79.3094 35.2386C80.3548 35.8523 81.2033 36.8182 81.8548 38.1364C82.5139 39.4545 82.8435 41.1667 82.8435 43.2727C82.8435 45.2879 82.5291 46.9583 81.9003 48.2841C81.2791 49.6098 80.4457 50.5985 79.4003 51.25C78.3624 51.9015 77.2222 52.2273 75.9798 52.2273C75.1616 52.2273 74.4306 52.0947 73.7866 51.8295C73.1503 51.5568 72.6048 51.1894 72.1503 50.7273C71.7033 50.2576 71.3586 49.7273 71.1162 49.1364H71.0253V58.5455H64.7525ZM70.8889 43.2727C70.8889 44.1212 70.9988 44.8561 71.2185 45.4773C71.4457 46.0909 71.7639 46.5682 72.173 46.9091C72.5897 47.2424 73.0859 47.4091 73.6616 47.4091C74.2374 47.4091 74.726 47.2462 75.1275 46.9205C75.5366 46.5871 75.8472 46.1136 76.0594 45.5C76.2791 44.8788 76.3889 44.1364 76.3889 43.2727C76.3889 42.4091 76.2791 41.6705 76.0594 41.0568C75.8472 40.4356 75.5366 39.9621 75.1275 39.6364C74.726 39.303 74.2374 39.1364 73.6616 39.1364C73.0859 39.1364 72.5897 39.303 72.173 39.6364C71.7639 39.9621 71.4457 40.4356 71.2185 41.0568C70.9988 41.6705 70.8889 42.4091 70.8889 43.2727ZM90.9749 52.2727C89.8613 52.2727 88.8764 52.0909 88.0204 51.7273C87.1719 51.3561 86.5052 50.7955 86.0204 50.0455C85.5355 49.2955 85.2931 48.3409 85.2931 47.1818C85.2931 46.2273 85.456 45.4129 85.7817 44.7386C86.1075 44.0568 86.5621 43.5 87.1454 43.0682C87.7287 42.6364 88.4067 42.3068 89.1795 42.0795C89.9598 41.8523 90.8007 41.7045 91.7022 41.6364C92.6795 41.5606 93.4636 41.4697 94.0545 41.3636C94.653 41.25 95.0848 41.0947 95.3499 40.8977C95.6151 40.6932 95.7477 40.4242 95.7477 40.0909V40.0455C95.7477 39.5909 95.5734 39.2424 95.2249 39C94.8764 38.7576 94.4295 38.6364 93.884 38.6364C93.2855 38.6364 92.7969 38.7689 92.4181 39.0341C92.0469 39.2917 91.8234 39.6894 91.7477 40.2273H85.9749C86.0507 39.1667 86.3878 38.1894 86.9863 37.2955C87.5924 36.3939 88.4749 35.6742 89.634 35.1364C90.7931 34.5909 92.2401 34.3182 93.9749 34.3182C95.2249 34.3182 96.3461 34.4659 97.3386 34.7614C98.331 35.0492 99.1757 35.4545 99.8727 35.9773C100.57 36.4924 101.1 37.0985 101.464 37.7955C101.835 38.4848 102.02 39.2348 102.02 40.0455V52H96.1567V49.5455H96.0204C95.6719 50.197 95.2477 50.7235 94.7477 51.125C94.2552 51.5265 93.6908 51.8182 93.0545 52C92.4257 52.1818 91.7325 52.2727 90.9749 52.2727ZM93.0204 48.3182C93.4977 48.3182 93.9446 48.2197 94.3613 48.0227C94.7855 47.8258 95.1302 47.5417 95.3954 47.1705C95.6605 46.7992 95.7931 46.3485 95.7931 45.8182V44.3636C95.6264 44.4318 95.4484 44.4962 95.259 44.5568C95.0772 44.6174 94.8802 44.6742 94.6681 44.7273C94.4636 44.7803 94.2439 44.8295 94.009 44.875C93.7818 44.9205 93.5431 44.9621 93.2931 45C92.8083 45.0758 92.4105 45.2008 92.0999 45.375C91.7969 45.5417 91.5696 45.75 91.4181 46C91.2742 46.2424 91.2022 46.5152 91.2022 46.8182C91.2022 47.303 91.3727 47.6742 91.7136 47.9318C92.0545 48.1894 92.4901 48.3182 93.0204 48.3182ZM121.612 40.2273H115.839C115.809 39.8712 115.684 39.5644 115.464 39.3068C115.245 39.0492 114.961 38.8523 114.612 38.7159C114.271 38.572 113.892 38.5 113.476 38.5C112.938 38.5 112.476 38.5985 112.089 38.7955C111.703 38.9924 111.514 39.2727 111.521 39.6364C111.514 39.8939 111.623 40.1326 111.851 40.3523C112.086 40.572 112.536 40.7424 113.203 40.8636L116.748 41.5C118.536 41.8258 119.866 42.375 120.737 43.1477C121.616 43.9129 122.059 44.9394 122.067 46.2273C122.059 47.4697 121.688 48.5492 120.953 49.4659C120.226 50.375 119.23 51.0795 117.964 51.5795C116.707 52.072 115.271 52.3182 113.658 52.3182C110.991 52.3182 108.904 51.7727 107.396 50.6818C105.896 49.5909 105.059 48.1515 104.885 46.3636H111.112C111.195 46.9167 111.468 47.3447 111.93 47.6477C112.4 47.9432 112.991 48.0909 113.703 48.0909C114.279 48.0909 114.752 47.9924 115.123 47.7955C115.502 47.5985 115.695 47.3182 115.703 46.9545C115.695 46.6212 115.529 46.3561 115.203 46.1591C114.885 45.9621 114.385 45.803 113.703 45.6818L110.612 45.1364C108.832 44.8258 107.498 44.2348 106.612 43.3636C105.726 42.4924 105.286 41.3712 105.294 40C105.286 38.7879 105.605 37.7614 106.248 36.9205C106.9 36.072 107.828 35.428 109.033 34.9886C110.245 34.5417 111.68 34.3182 113.339 34.3182C115.862 34.3182 117.851 34.8409 119.305 35.8864C120.767 36.9318 121.536 38.3788 121.612 40.2273ZM141.065 40.2273H135.292C135.262 39.8712 135.137 39.5644 134.917 39.3068C134.697 39.0492 134.413 38.8523 134.065 38.7159C133.724 38.572 133.345 38.5 132.928 38.5C132.39 38.5 131.928 38.5985 131.542 38.7955C131.155 38.9924 130.966 39.2727 130.974 39.6364C130.966 39.8939 131.076 40.1326 131.303 40.3523C131.538 40.572 131.989 40.7424 132.655 40.8636L136.201 41.5C137.989 41.8258 139.318 42.375 140.19 43.1477C141.068 43.9129 141.512 44.9394 141.519 46.2273C141.512 47.4697 141.14 48.5492 140.405 49.4659C139.678 50.375 138.682 51.0795 137.417 51.5795C136.159 52.072 134.724 52.3182 133.11 52.3182C130.443 52.3182 128.356 51.7727 126.849 50.6818C125.349 49.5909 124.512 48.1515 124.337 46.3636H130.565C130.648 46.9167 130.921 47.3447 131.383 47.6477C131.852 47.9432 132.443 48.0909 133.155 48.0909C133.731 48.0909 134.205 47.9924 134.576 47.7955C134.955 47.5985 135.148 47.3182 135.155 46.9545C135.148 46.6212 134.981 46.3561 134.655 46.1591C134.337 45.9621 133.837 45.803 133.155 45.6818L130.065 45.1364C128.284 44.8258 126.951 44.2348 126.065 43.3636C125.178 42.4924 124.739 41.3712 124.746 40C124.739 38.7879 125.057 37.7614 125.701 36.9205C126.352 36.072 127.28 35.428 128.485 34.9886C129.697 34.5417 131.133 34.3182 132.792 34.3182C135.315 34.3182 137.303 34.8409 138.758 35.8864C140.22 36.9318 140.989 38.3788 141.065 40.2273Z" fill="#9333EA"/>
</svg>
